<?xml version="1.0" encoding="UTF-8"?>
<svg id="Layer_1" data-name="Layer 1" xmlns="http://www.w3.org/2000/svg" xmlns:xlink="http://www.w3.org/1999/xlink" viewBox="0 0 654.12496 92.98828">
  <defs>
    <style>
      .cls-1 {
        fill: url(#linear-gradient-2);
      }

      .cls-2 {
        fill: #231f20;
      }

      .cls-3 {
        fill: url(#linear-gradient);
      }
    </style>
    <linearGradient id="linear-gradient" x1="-20.65723" y1="2.73227" x2="93.58433" y2="50.28483" gradientUnits="userSpaceOnUse">
      <stop offset="0" stop-color="#a1dbcc"/>
      <stop offset="1" stop-color="#69ae9e"/>
    </linearGradient>
    <linearGradient id="linear-gradient-2" x1="26.60805" y1="2.96699" x2="70.26295" y2="48.91186" gradientUnits="userSpaceOnUse">
      <stop offset="0" stop-color="#69ae9e"/>
      <stop offset=".19737" stop-color="#63a696"/>
      <stop offset=".49734" stop-color="#549181"/>
      <stop offset=".67046" stop-color="#4a8273"/>
    </linearGradient>
  </defs>
  <g>
    <path class="cls-2" d="M402.41988,90.42915V23.30415c0-1.6377.92188-2.55859,2.55859-2.55859h9.10742c1.63672,0,2.55762.9209,2.55762,2.55859v56.07422h41.85059c1.6377,0,2.55859.9209,2.55859,2.55859v8.49219c0,1.6377-.9209,2.55859-2.55859,2.55859h-53.51562c-1.63672,0-2.55859-.9209-2.55859-2.55859Z"/>
    <path class="cls-2" d="M465.24312,76.71821c0-11.66504,4.39941-15.96289,18.31641-17.39551l21.48828-2.14844c2.45605-.30762,3.27441-1.53516,3.27441-3.68457,0-4.19531-1.8418-5.42285-7.16211-5.42285h-28.75391c-1.63672,0-2.55859-.9209-2.55859-2.55762v-7.4707c0-1.63672.92188-2.55762,2.55859-2.55762h29.06055c14.73438,0,20.3623,5.21875,20.3623,16.88379v38.06445c0,1.6377-.9209,2.55859-2.55762,2.55859h-8.39062c-1.6377,0-2.55859-.9209-2.55859-2.55859v-4.80859c-2.66016,4.91113-6.75391,7.36719-15.65625,7.36719h-5.93457c-13.71191,0-21.48828-4.70703-21.48828-16.26953ZM499.2148,80.81099c6.75391,0,9.10742-2.25098,9.10742-8.7998v-4.91211l-22.51172,2.25195c-5.42285.51074-6.95801,2.0459-6.95801,6.03711,0,3.68359,2.66113,5.42285,7.77637,5.42285h12.58594Z"/>
    <path class="cls-2" d="M602.04293,90.42915v-7.46973c0-1.63672.91992-2.55762,2.55664-2.55762h28.14062c5.62695,0,7.77539-1.22754,7.77539-4.80957,0-3.58105-1.5332-4.50195-6.95703-5.11621l-15.75781-1.73926c-12.79102-1.43262-16.98633-6.34473-16.98633-16.98633,0-11.15332,6.54883-16.26953,20.56641-16.26953h27.42383c1.63672,0,2.55859.9209,2.55859,2.55762v7.4707c0,1.63672-.92188,2.55762-2.55859,2.55762h-27.11523c-5.11719,0-7.4707,1.12598-7.4707,5.01367,0,3.37695,1.43359,4.40039,6.13867,4.91211l15.45117,1.73926c14.32617,1.73926,18.31641,6.95801,18.31641,17.29297,0,11.5625-6.44531,15.96289-21.48828,15.96289h-28.03711c-1.63672,0-2.55664-.9209-2.55664-2.55859Z"/>
  </g>
  <path class="cls-2" d="M532.26357,14.94079h10.57589c1.0357,0,1.8753.8396,1.8753,1.8753v57.94324c0,3.34224,2.70942,6.05165,6.05165,6.05165h22.19389c3.34224,0,6.05165-2.70942,6.05165-6.05165v-20.72034c0-3.34224-2.70942-6.05165-6.05165-6.05165h-22.63944v-12.50644h25.47906c9.68626,0,17.53853,7.85227,17.53853,17.53853v22.42979c0,9.68626-7.85227,17.53853-17.53853,17.53853h-27.87313c-9.68626,0-17.53853-7.85227-17.53853-17.53853V16.81609c0-1.0357.8396-1.8753,1.8753-1.8753Z"/>
  <path class="cls-3" d="M89.11608,0c-5.97473,13.37976-12.67078,28.37817-19.02155,42.6106-.00153-.00342-.00311-.00696-.00464-.01038-4.46796,10.01489-8.66534,19.42786-12.19177,27.34399C49.50127,51.09522,37.30846,23.77662,26.69201,0H2.60044C.72013,0-.5384,1.93233.22828,3.64923c11.73766,26.28525,26.28034,58.86488,35.51952,79.61003,2.63694,5.92085,8.5084,9.72902,14.98991,9.72901l26.43001-.00002c3.68697,0,7.02734-2.16728,8.52664-5.53564,9.07748-20.39364,24.92752-55.9029,37.51034-84.08052C123.91292,1.78616,122.75092,0,121.01404,0h-31.89796Z"/>
  <path class="cls-2" d="M119.50289,70.27192v-12.38184c0-14.22363,4.70703-22.40918,21.18164-22.40918h14.42773c16.47461,0,21.18164,8.18555,21.18164,22.40918v9.20898c0,1.6377-.9209,2.55859-2.55859,2.55859h-40.72461v2.04688c0,7.05957,1.8418,8.69727,7.98047,8.69727h28.13965c1.6377,0,2.55859.9209,2.55859,2.55762v7.46973c0,1.6377-.9209,2.55859-2.55859,2.55859h-28.44629c-16.47461,0-21.18164-8.08398-21.18164-22.71582ZM162.78707,59.32271v-2.66016c0-6.95801-1.73926-8.5957-7.98145-8.5957h-13.81445c-6.24121,0-7.98047,1.6377-7.98047,8.5957v2.66016h29.77637Z"/>
  <path class="cls-2" d="M221.92672,35.48091c1.63672,0,2.55762.9209,2.55762,2.55762v7.4707c0,1.63672-.9209,2.55762-2.55762,2.55762h-14.73535c-5.52539,0-7.98145,1.43262-7.98145,8.69727v33.66504c0,1.6377-.9209,2.55859-2.55762,2.55859h-8.39062c-1.6377,0-2.55859-.9209-2.55859-2.55859v-52.39062c0-1.63672.9209-2.55762,2.55859-2.55762h8.39062c1.63672,0,2.55762.9209,2.55762,2.55762v4.09375c2.45605-4.29785,6.95898-6.65137,14.83789-6.65137h7.87891Z"/>
  <path class="cls-2" d="M228.88179,90.42915v-7.46973c0-1.63672.9209-2.55762,2.55859-2.55762h28.13965c5.62793,0,7.77637-1.22754,7.77637-4.80957,0-3.58105-1.53418-4.50195-6.95801-5.11621l-15.75781-1.73926c-12.79102-1.43262-16.98633-6.34473-16.98633-16.98633,0-11.15332,6.54883-16.26953,20.56738-16.26953h27.42383c1.63672,0,2.55762.9209,2.55762,2.55762v7.4707c0,1.63672-.9209,2.55762-2.55762,2.55762h-27.11719c-5.11621,0-7.46973,1.12598-7.46973,5.01367,0,3.37695,1.43262,4.40039,6.13965,4.91211l15.45117,1.73926c14.32617,1.73926,18.31641,6.95801,18.31641,17.29297,0,11.5625-6.44629,15.96289-21.48828,15.96289h-28.03711c-1.6377,0-2.55859-.9209-2.55859-2.55859Z"/>
  <path class="cls-2" d="M288.6357,70.27192v-12.38184c0-14.22363,4.70703-22.40918,21.18164-22.40918h16.98633c16.47363,0,21.18066,8.18555,21.18066,22.40918v12.38184c0,14.63184-4.70703,22.71582-21.18066,22.71582h-16.98633c-16.47461,0-21.18164-8.08398-21.18164-22.71582ZM326.49605,80.40181c6.13965,0,7.98145-1.6377,7.98145-8.69727v-15.04199c0-6.95801-1.73926-8.5957-7.98145-8.5957h-16.37207c-6.24121,0-7.98145,1.6377-7.98145,8.5957v15.04199c0,7.05957,1.8418,8.69727,7.98145,8.69727h16.37207Z"/>
  <path class="cls-2" d="M358.41793,90.42915V17.8813c0-1.6377.9209-2.55859,2.55762-2.55859h8.39062c1.6377,0,2.55859.9209,2.55859,2.55859v72.54785c0,1.6377-.9209,2.55859-2.55859,2.55859h-8.39062c-1.63672,0-2.55762-.9209-2.55762-2.55859Z"/>
  <path class="cls-1" d="M57.95137,61.20142c2.5835-5.79956,5.52954-12.40771,8.67603-19.4624C60.75826,28.60571,53.26925,12.29858,47.77755,0h-17.12891c9.60107,21.50537,19.91919,44.62695,27.30273,61.20142Z"/>
</svg>